<svg width="99" height="18" viewBox="0 0 99 18" fill="none" xmlns="http://www.w3.org/2000/svg">
<path d="M10.944 5.816L10.416 8.28H12.448V10.28H9.984L9.408 13H7.28L7.856 10.28H4.944L4.368 13H2.256L2.832 10.28H0.416V8.28H3.264L3.792 5.816H1.392V3.816H4.224L4.784 1.16H6.896L6.336 3.816H9.248L9.808 1.16H11.936L11.376 3.816H13.424V5.816H10.944ZM8.816 5.816H5.904L5.376 8.28H8.288L8.816 5.816Z" fill="#0469DC"/>
<path d="M23.008 1.832C24.1813 1.832 25.2107 2.06133 26.096 2.52C26.992 2.97867 27.68 3.63467 28.16 4.488C28.6507 5.33067 28.896 6.312 28.896 7.432C28.896 8.552 28.6507 9.53333 28.16 10.376C27.68 11.208 26.992 11.8533 26.096 12.312C25.2107 12.7707 24.1813 13 23.008 13H19.104V1.832H23.008ZM22.928 11.096C24.1013 11.096 25.008 10.776 25.648 10.136C26.288 9.496 26.608 8.59467 26.608 7.432C26.608 6.26933 26.288 5.36267 25.648 4.712C25.008 4.05067 24.1013 3.72 22.928 3.72H21.344V11.096H22.928ZM38.8128 8.376C38.8128 8.696 38.7914 8.984 38.7488 9.24H32.2688C32.3221 9.88 32.5461 10.3813 32.9408 10.744C33.3354 11.1067 33.8208 11.288 34.3968 11.288C35.2288 11.288 35.8208 10.9307 36.1728 10.216H38.5888C38.3328 11.0693 37.8421 11.7733 37.1168 12.328C36.3914 12.872 35.5008 13.144 34.4448 13.144C33.5914 13.144 32.8234 12.9573 32.1408 12.584C31.4688 12.2 30.9408 11.6613 30.5568 10.968C30.1834 10.2747 29.9967 9.47467 29.9967 8.568C29.9967 7.65067 30.1834 6.84533 30.5568 6.152C30.9301 5.45867 31.4528 4.92533 32.1248 4.552C32.7968 4.17867 33.5701 3.992 34.4448 3.992C35.2874 3.992 36.0394 4.17333 36.7008 4.536C37.3728 4.89867 37.8901 5.416 38.2528 6.088C38.6261 6.74933 38.8128 7.512 38.8128 8.376ZM36.4928 7.736C36.4821 7.16 36.2741 6.70133 35.8688 6.36C35.4634 6.008 34.9674 5.832 34.3808 5.832C33.8261 5.832 33.3568 6.00267 32.9728 6.344C32.5994 6.67467 32.3701 7.13867 32.2848 7.736H36.4928ZM43.8398 13.144C43.1144 13.144 42.4638 13.016 41.8878 12.76C41.3118 12.4933 40.8531 12.136 40.5118 11.688C40.1811 11.24 39.9998 10.744 39.9678 10.2H42.2238C42.2664 10.5413 42.4318 10.824 42.7198 11.048C43.0184 11.272 43.3864 11.384 43.8238 11.384C44.2504 11.384 44.5811 11.2987 44.8158 11.128C45.0611 10.9573 45.1838 10.7387 45.1838 10.472C45.1838 10.184 45.0344 9.97067 44.7358 9.832C44.4478 9.68267 43.9838 9.52267 43.3438 9.352C42.6824 9.192 42.1384 9.02667 41.7118 8.856C41.2958 8.68533 40.9331 8.424 40.6238 8.072C40.3251 7.72 40.1758 7.24533 40.1758 6.648C40.1758 6.15733 40.3144 5.70933 40.5918 5.304C40.8798 4.89867 41.2851 4.57867 41.8078 4.344C42.3411 4.10933 42.9651 3.992 43.6798 3.992C44.7358 3.992 45.5784 4.25867 46.2078 4.792C46.8371 5.31467 47.1838 6.024 47.2478 6.92H45.1038C45.0718 6.568 44.9224 6.29067 44.6558 6.088C44.3998 5.87467 44.0531 5.768 43.6158 5.768C43.2104 5.768 42.8958 5.84267 42.6718 5.992C42.4584 6.14133 42.3518 6.34933 42.3518 6.616C42.3518 6.91467 42.5011 7.144 42.7998 7.304C43.0984 7.45333 43.5624 7.608 44.1918 7.768C44.8318 7.928 45.3598 8.09333 45.7758 8.264C46.1918 8.43467 46.5491 8.70133 46.8478 9.064C47.1571 9.416 47.3171 9.88533 47.3278 10.472C47.3278 10.984 47.1838 11.4427 46.8958 11.848C46.6184 12.2533 46.2131 12.5733 45.6798 12.808C45.1571 13.032 44.5438 13.144 43.8398 13.144ZM50.3025 3.08C49.9078 3.08 49.5772 2.95733 49.3105 2.712C49.0545 2.456 48.9265 2.14133 48.9265 1.768C48.9265 1.39467 49.0545 1.08533 49.3105 0.839999C49.5772 0.583999 49.9078 0.455999 50.3025 0.455999C50.6972 0.455999 51.0225 0.583999 51.2785 0.839999C51.5452 1.08533 51.6785 1.39467 51.6785 1.768C51.6785 2.14133 51.5452 2.456 51.2785 2.712C51.0225 2.95733 50.6972 3.08 50.3025 3.08ZM51.4065 4.136V13H49.1665V4.136H51.4065ZM57.0916 3.992C57.753 3.992 58.3343 4.12533 58.8356 4.392C59.337 4.648 59.7316 4.984 60.0196 5.4V4.136H62.2756V13.064C62.2756 13.8853 62.1103 14.616 61.7796 15.256C61.449 15.9067 60.953 16.4187 60.2916 16.792C59.6303 17.176 58.8303 17.368 57.8916 17.368C56.633 17.368 55.5983 17.0747 54.7876 16.488C53.9876 15.9013 53.5343 15.1013 53.4276 14.088H55.6516C55.769 14.4933 56.0196 14.8133 56.4036 15.048C56.7983 15.2933 57.273 15.416 57.8276 15.416C58.4783 15.416 59.0063 15.2187 59.4116 14.824C59.817 14.44 60.0196 13.8533 60.0196 13.064V11.688C59.7316 12.104 59.3316 12.4507 58.8196 12.728C58.3183 13.0053 57.7423 13.144 57.0916 13.144C56.345 13.144 55.6623 12.952 55.0436 12.568C54.425 12.184 53.9343 11.6453 53.5716 10.952C53.2196 10.248 53.0436 9.44267 53.0436 8.536C53.0436 7.64 53.2196 6.84533 53.5716 6.152C53.9343 5.45867 54.4196 4.92533 55.0276 4.552C55.6463 4.17867 56.3343 3.992 57.0916 3.992ZM60.0196 8.568C60.0196 8.024 59.913 7.56 59.6996 7.176C59.4863 6.78133 59.1983 6.48267 58.8356 6.28C58.473 6.06667 58.0836 5.96 57.6676 5.96C57.2516 5.96 56.8676 6.06133 56.5156 6.264C56.1636 6.46667 55.8756 6.76533 55.6516 7.16C55.4383 7.544 55.3316 8.00267 55.3316 8.536C55.3316 9.06933 55.4383 9.53867 55.6516 9.944C55.8756 10.3387 56.1636 10.6427 56.5156 10.856C56.8783 11.0693 57.2623 11.176 57.6676 11.176C58.0836 11.176 58.473 11.0747 58.8356 10.872C59.1983 10.6587 59.4863 10.36 59.6996 9.976C59.913 9.58133 60.0196 9.112 60.0196 8.568ZM69.3754 4.008C70.4314 4.008 71.2847 4.344 71.9354 5.016C72.586 5.67733 72.9114 6.60533 72.9114 7.8V13H70.6714V8.104C70.6714 7.4 70.4954 6.86133 70.1434 6.488C69.7914 6.104 69.3114 5.912 68.7034 5.912C68.0847 5.912 67.594 6.104 67.2314 6.488C66.8794 6.86133 66.7034 7.4 66.7034 8.104V13H64.4634V4.136H66.7034V5.24C67.002 4.856 67.3807 4.55733 67.8394 4.344C68.3087 4.12 68.8207 4.008 69.3754 4.008ZM82.6255 5.112C82.6255 6.04 82.3055 6.81333 81.6655 7.432C81.0362 8.04 80.0708 8.344 78.7695 8.344H76.6255V13H75.1695V1.848H78.7695C80.0282 1.848 80.9828 2.152 81.6335 2.76C82.2948 3.368 82.6255 4.152 82.6255 5.112ZM78.7695 7.144C79.5802 7.144 80.1775 6.968 80.5615 6.616C80.9455 6.264 81.1375 5.76267 81.1375 5.112C81.1375 3.736 80.3482 3.048 78.7695 3.048H76.6255V7.144H78.7695ZM85.8911 5.656C86.1471 5.15467 86.5098 4.76533 86.9791 4.488C87.4591 4.21067 88.0405 4.072 88.7231 4.072V5.576H88.3391C86.7071 5.576 85.8911 6.46133 85.8911 8.232V13H84.4351V4.232H85.8911V5.656ZM94.2279 13.144C93.4065 13.144 92.6599 12.9573 91.9879 12.584C91.3265 12.2107 90.8039 11.6827 90.4199 11C90.0465 10.3067 89.8599 9.50667 89.8599 8.6C89.8599 7.704 90.0519 6.91467 90.4359 6.232C90.8305 5.53867 91.3639 5.01067 92.0359 4.648C92.7079 4.27467 93.4599 4.088 94.2919 4.088C95.1239 4.088 95.8759 4.27467 96.5479 4.648C97.2199 5.01067 97.7479 5.53333 98.1319 6.216C98.5265 6.89867 98.7239 7.69333 98.7239 8.6C98.7239 9.50667 98.5212 10.3067 98.1159 11C97.7212 11.6827 97.1825 12.2107 96.4999 12.584C95.8172 12.9573 95.0599 13.144 94.2279 13.144ZM94.2279 11.864C94.7505 11.864 95.2412 11.7413 95.6999 11.496C96.1585 11.2507 96.5265 10.8827 96.8039 10.392C97.0919 9.90133 97.2359 9.304 97.2359 8.6C97.2359 7.896 97.0972 7.29867 96.8199 6.808C96.5425 6.31733 96.1799 5.95467 95.7319 5.72C95.2839 5.47467 94.7985 5.352 94.2759 5.352C93.7425 5.352 93.2519 5.47467 92.8039 5.72C92.3665 5.95467 92.0145 6.31733 91.7479 6.808C91.4812 7.29867 91.3479 7.896 91.3479 8.6C91.3479 9.31467 91.4759 9.91733 91.7319 10.408C91.9985 10.8987 92.3505 11.2667 92.7879 11.512C93.2252 11.7467 93.7052 11.864 94.2279 11.864Z" fill="black"/>
</svg>
