<svg width="24" height="24" fill="none" xmlns="http://www.w3.org/2000/svg"><path d="M0 12C0 5.373 5.373 0 12 0s12 5.373 12 12-5.373 12-12 12S0 18.627 0 12z" fill="url(#paint0_radial)"/><mask id="a" maskUnits="userSpaceOnUse" x="0" y="0" width="24" height="24"><path fill-rule="evenodd" clip-rule="evenodd" d="M0 12C0 5.373 5.373 0 12 0s12 5.373 12 12-5.373 12-12 12S0 18.627 0 12z" fill="#fff"/></mask><g mask="url(#a)"><path fill-rule="evenodd" clip-rule="evenodd" d="M12 5.6c-1.738 0-1.956.008-2.638.039-.682.03-1.147.139-1.554.297-.42.163-.778.382-1.133.738a3.142 3.142 0 00-.74 1.134c-.158.407-.266.872-.296 1.553-.031.683-.039.9-.039 2.64 0 1.737.008 1.955.039 2.637.031.682.139 1.147.297 1.554.164.42.382.778.738 1.134.356.355.713.575 1.133.738.408.158.873.266 1.554.297.683.031.9.04 2.639.04 1.738 0 1.956-.009 2.638-.04.681-.03 1.147-.139 1.554-.297a3.13 3.13 0 001.133-.738c.356-.356.575-.713.739-1.134.157-.407.265-.872.297-1.553.031-.683.039-.9.039-2.639 0-1.738-.008-1.956-.039-2.639-.032-.681-.14-1.146-.297-1.553a3.141 3.141 0 00-.739-1.134 3.128 3.128 0 00-1.133-.738c-.408-.158-.873-.266-1.555-.297-.682-.031-.9-.039-2.638-.039H12zm-.213 1.153h.214c1.708 0 1.91.006 2.586.037.624.029.962.133 1.188.22.299.117.512.255.736.48.224.223.362.437.478.735.088.226.192.564.22 1.188.032.675.038.878.038 2.586 0 1.708-.006 1.91-.037 2.585-.029.624-.133.963-.22 1.188a1.98 1.98 0 01-.48.735 1.98 1.98 0 01-.735.479c-.225.088-.564.192-1.188.22-.675.031-.878.038-2.586.038-1.71 0-1.912-.007-2.587-.038-.624-.028-.962-.133-1.188-.22a1.981 1.981 0 01-.736-.479 1.984 1.984 0 01-.479-.736c-.088-.225-.192-.564-.22-1.188-.031-.674-.037-.877-.037-2.586 0-1.71.006-1.91.037-2.585.028-.624.132-.963.22-1.189.116-.298.255-.512.479-.736.224-.224.437-.362.736-.479.226-.088.564-.192 1.188-.22.59-.027.82-.035 2.012-.036v.001h.361zm2.862 1.83zM12 8.714a3.287 3.287 0 10.001 6.574 3.287 3.287 0 000-6.574zM14.134 12a2.133 2.133 0 10-4.267 0 2.133 2.133 0 004.267 0z" fill="#fff"/></g><defs><radialGradient id="paint0_radial" cx="0" cy="0" r="1" gradientUnits="userSpaceOnUse" gradientTransform="rotate(-46.332 25.787 5.159) scale(22.8104)"><stop offset=".032" stop-color="#FED374"/><stop offset=".31" stop-color="#EA554E"/><stop offset=".588" stop-color="#CF1786"/><stop offset="1" stop-color="#4B60B7"/></radialGradient></defs></svg>