<svg width="99" height="18" fill="none" xmlns="http://www.w3.org/2000/svg"><path d="M10.944 5.816l-.528 2.464h2.032v2H9.984L9.408 13H7.28l.576-2.72H4.944L4.368 13H2.256l.576-2.72H.416v-2h2.848l.528-2.464h-2.4v-2h2.832l.56-2.656h2.112l-.56 2.656h2.912l.56-2.656h2.128l-.56 2.656h2.048v2h-2.48zm-2.128 0H5.904L5.376 8.28h2.912l.528-2.464z" fill="#0469DC"/><path d="M23.008 1.832c1.173 0 2.203.23 3.088.688a4.84 4.84 0 012.064 1.968c.49.843.736 1.824.736 2.944 0 1.12-.245 2.101-.736 2.944-.48.832-1.168 1.477-2.064 1.936-.885.459-1.915.688-3.088.688h-3.904V1.832h3.904zm-.08 9.264c1.173 0 2.08-.32 2.72-.96.64-.64.96-1.541.96-2.704 0-1.163-.32-2.07-.96-2.72-.64-.661-1.547-.992-2.72-.992h-1.584v7.376h1.584zm15.885-2.72c0 .32-.022.608-.064.864h-6.48c.053.64.277 1.141.672 1.504.394.363.88.544 1.456.544.832 0 1.424-.357 1.776-1.072h2.416a4.079 4.079 0 01-1.472 2.112c-.726.544-1.616.816-2.672.816-.854 0-1.622-.187-2.304-.56a4.122 4.122 0 01-1.584-1.616c-.374-.693-.56-1.493-.56-2.4 0-.917.186-1.723.56-2.416a3.907 3.907 0 011.568-1.6c.672-.373 1.445-.56 2.32-.56.842 0 1.594.181 2.256.544a3.75 3.75 0 011.552 1.552c.373.661.56 1.424.56 2.288zm-2.32-.64c-.01-.576-.219-1.035-.624-1.376-.406-.352-.902-.528-1.488-.528-.555 0-1.024.17-1.408.512-.374.33-.603.795-.688 1.392h4.208zm7.347 5.408c-.726 0-1.376-.128-1.952-.384-.576-.267-1.035-.624-1.376-1.072a2.728 2.728 0 01-.544-1.488h2.256c.042.341.208.624.496.848.298.224.666.336 1.104.336.426 0 .757-.085.992-.256.245-.17.368-.39.368-.656 0-.288-.15-.501-.448-.64-.288-.15-.752-.31-1.392-.48a12.254 12.254 0 01-1.632-.496 2.9 2.9 0 01-1.088-.784c-.299-.352-.448-.827-.448-1.424 0-.49.138-.939.416-1.344.288-.405.693-.725 1.216-.96.533-.235 1.157-.352 1.872-.352 1.056 0 1.898.267 2.528.8.63.523.976 1.232 1.04 2.128h-2.144a1.125 1.125 0 00-.448-.832c-.256-.213-.603-.32-1.04-.32-.406 0-.72.075-.944.224a.719.719 0 00-.32.624c0 .299.15.528.448.688.298.15.762.304 1.392.464.64.16 1.168.325 1.584.496.416.17.773.437 1.072.8.31.352.47.821.48 1.408 0 .512-.144.97-.432 1.376-.278.405-.683.725-1.216.96-.523.224-1.136.336-1.84.336zM50.302 3.08c-.394 0-.725-.123-.992-.368a1.283 1.283 0 01-.384-.944c0-.373.128-.683.384-.928.267-.256.598-.384.992-.384.395 0 .72.128.977.384.266.245.4.555.4.928s-.134.688-.4.944c-.257.245-.582.368-.977.368zm1.105 1.056V13h-2.24V4.136h2.24zm5.685-.144c.661 0 1.242.133 1.744.4.501.256.896.592 1.184 1.008V4.136h2.256v8.928c0 .821-.166 1.552-.496 2.192a3.62 3.62 0 01-1.488 1.536c-.662.384-1.462.576-2.4.576-1.259 0-2.294-.293-3.104-.88-.8-.587-1.254-1.387-1.36-2.4h2.224c.117.405.368.725.752.96.394.245.869.368 1.424.368.65 0 1.178-.197 1.584-.592.405-.384.608-.97.608-1.76v-1.376c-.288.416-.688.763-1.2 1.04-.502.277-1.078.416-1.728.416-.747 0-1.43-.192-2.048-.576-.619-.384-1.11-.923-1.472-1.616-.352-.704-.528-1.51-.528-2.416 0-.896.176-1.69.528-2.384.362-.693.848-1.227 1.456-1.6a3.918 3.918 0 012.064-.56zm2.928 4.576c0-.544-.107-1.008-.32-1.392a2.189 2.189 0 00-.864-.896 2.265 2.265 0 00-1.168-.32c-.416 0-.8.101-1.152.304-.352.203-.64.501-.864.896-.214.384-.32.843-.32 1.376 0 .533.106 1.003.32 1.408.224.395.512.699.864.912.362.213.746.32 1.152.32.416 0 .805-.101 1.168-.304.362-.213.65-.512.864-.896.213-.395.32-.864.32-1.408zm9.355-4.56c1.056 0 1.91.336 2.56 1.008.651.661.976 1.59.976 2.784V13h-2.24V8.104c0-.704-.176-1.243-.528-1.616-.352-.384-.832-.576-1.44-.576-.618 0-1.109.192-1.472.576-.352.373-.528.912-.528 1.616V13h-2.24V4.136h2.24V5.24a3.036 3.036 0 011.136-.896 3.52 3.52 0 011.536-.336zm13.25 1.104c0 .928-.32 1.701-.96 2.32-.629.608-1.594.912-2.896.912h-2.144V13H75.17V1.848h3.6c1.26 0 2.214.304 2.864.912.662.608.993 1.392.993 2.352zM78.77 7.144c.811 0 1.408-.176 1.792-.528.384-.352.576-.853.576-1.504 0-1.376-.789-2.064-2.368-2.064h-2.144v4.096h2.144zm7.122-1.488c.256-.501.619-.89 1.088-1.168.48-.277 1.061-.416 1.744-.416v1.504h-.384c-1.632 0-2.448.885-2.448 2.656V13h-1.456V4.232h1.456v1.424zm8.337 7.488a4.534 4.534 0 01-2.24-.56A4.07 4.07 0 0190.42 11c-.374-.693-.56-1.493-.56-2.4 0-.896.192-1.685.576-2.368a4.008 4.008 0 011.6-1.584c.672-.373 1.424-.56 2.256-.56.832 0 1.584.187 2.256.56.672.363 1.2.885 1.584 1.568.394.683.592 1.477.592 2.384 0 .907-.203 1.707-.608 2.4a4.12 4.12 0 01-1.616 1.584c-.683.373-1.44.56-2.272.56zm0-1.28c.523 0 1.013-.123 1.472-.368a2.749 2.749 0 001.104-1.104c.288-.49.432-1.088.432-1.792s-.139-1.301-.416-1.792c-.277-.49-.64-.853-1.088-1.088a2.983 2.983 0 00-1.456-.368c-.533 0-1.024.123-1.472.368-.438.235-.79.597-1.056 1.088-.267.49-.4 1.088-.4 1.792 0 .715.128 1.317.384 1.808.267.49.618.859 1.056 1.104.437.235.917.352 1.44.352z" fill="#000"/></svg>