<svg width="96" height="16" fill="none" xmlns="http://www.w3.org/2000/svg"><path fill-rule="evenodd" clip-rule="evenodd" d="M88 3.26l1.38 2.79.23.5.5.075 3.08.445L91 9.22l-.375.365.09.5.525 3.065-2.755-1.445L88 11.5l-.465.245-2.755 1.425.5-3.065.09-.5L85 9.22l-2.21-2.175 3.08-.445.5-.075.23-.5L88 3.26zM88 1l-2.275 4.61-5.085.735 3.68 3.59L83.45 15 88 12.61 92.55 15l-.87-5.065 3.68-3.585-5.085-.74L88 1zM8 1L5.725 5.61.64 6.345l3.68 3.59L3.45 15 8 12.61 12.55 15l-.87-5.065 3.68-3.585-5.085-.74L8 1zm20 0l-2.275 4.61-5.085.735 3.68 3.59L23.45 15 28 12.61 32.55 15l-.87-5.065 3.68-3.585-5.085-.74L28 1zm20 0l-2.275 4.61-5.085.735 3.68 3.59L43.45 15 48 12.61 52.55 15l-.87-5.065 3.68-3.585-5.085-.74L48 1zm20 0l-2.275 4.61-5.085.735 3.68 3.59L63.45 15 68 12.61 72.55 15l-.87-5.065 3.68-3.585-5.085-.74L68 1z" fill="#000"/><path fill-rule="evenodd" clip-rule="evenodd" d="M85.725 5.61l-5.085.74 3.68 3.585L83.45 15 88 12.61V1l-2.275 4.61z" fill="#000"/></svg>