<svg width="24" height="24" fill="none" xmlns="http://www.w3.org/2000/svg"><path d="M0 12C0 5.373 5.373 0 12 0s12 5.373 12 12-5.373 12-12 12S0 18.627 0 12z" fill="red"/><path d="M18.133 9.037A1.625 1.625 0 0017 7.875c-.997-.275-5-.275-5-.275s-4.003 0-5 .275c-.552.15-.985.596-1.133 1.162C5.6 10.06 5.6 12.2 5.6 12.2s0 2.138.267 3.163a1.625 1.625 0 001.132 1.162C7.997 16.8 12 16.8 12 16.8s4.003 0 5-.275c.552-.15.985-.596 1.133-1.162.267-1.025.267-3.163.267-3.163s0-2.138-.267-3.163z" fill="#fff"/><path d="M10.8 14.4v-4l3.2 2-3.2 2z" fill="red"/></svg>